<svg xmlns="http://www.w3.org/2000/svg" xmlns:xlink="http://www.w3.org/1999/xlink" width="500" zoomAndPan="magnify" viewBox="0 0 375 374.999991" height="500" preserveAspectRatio="xMidYMid meet" version="1.2"><defs><clipPath id="21a06bb7b0"><path d="M 67 249 L 179 249 L 179 276.0625 L 67 276.0625 Z M 67 249 "/></clipPath><clipPath id="6fb043191e"><path d="M 196 249 L 308 249 L 308 276.0625 L 196 276.0625 Z M 196 249 "/></clipPath><clipPath id="36bac105c9"><path d="M 45.066406 166 L 185 166 L 185 244 L 45.066406 244 Z M 45.066406 166 "/></clipPath><clipPath id="24b238f75a"><path d="M 98 14.703125 L 278 14.703125 L 278 159 L 98 159 Z M 98 14.703125 "/></clipPath></defs><g id="82e1add845"><path style=" stroke:none;fill-rule:nonzero;fill:#a27021;fill-opacity:1;" d="M 173.566406 252.0625 C 173.566406 252.0625 116.824219 224.730469 60.324219 247.078125 L 47.203125 267.300781 C 47.203125 267.300781 106.226562 230.867188 173.566406 252.0625 Z M 173.566406 252.0625 "/><g clip-rule="nonzero" clip-path="url(#21a06bb7b0)"><path style=" stroke:none;fill-rule:nonzero;fill:#a27021;fill-opacity:1;" d="M 80.832031 258.199219 L 67.875 276.0625 C 67.875 276.0625 119.710938 245.582031 178.570312 259.953125 C 178.550781 259.953125 130.570312 238.234375 80.832031 258.199219 Z M 80.832031 258.199219 "/></g><path style=" stroke:none;fill-rule:nonzero;fill:#a27021;fill-opacity:1;" d="M 201.421875 252.0625 C 268.757812 230.867188 327.78125 267.300781 327.78125 267.300781 L 314.640625 247.078125 C 258.160156 224.730469 201.421875 252.0625 201.421875 252.0625 Z M 201.421875 252.0625 "/><g clip-rule="nonzero" clip-path="url(#6fb043191e)"><path style=" stroke:none;fill-rule:nonzero;fill:#a27021;fill-opacity:1;" d="M 196.433594 259.953125 C 255.273438 245.601562 307.132812 276.0625 307.132812 276.0625 L 294.171875 258.199219 C 244.414062 238.234375 196.433594 259.953125 196.433594 259.953125 Z M 196.433594 259.953125 "/></g><g clip-rule="nonzero" clip-path="url(#36bac105c9)"><path style=" stroke:none;fill-rule:nonzero;fill:#f4a64e;fill-opacity:1;" d="M 167.144531 243.828125 C 170.65625 237.367188 171.203125 229.777344 164.199219 221.765625 C 144.941406 199.703125 184.867188 191.121094 184.867188 191.121094 C 152.8125 155.394531 93.449219 168.535156 93.449219 168.535156 L 45.105469 242.617188 C 95.304688 222.027344 142.519531 234.199219 167.144531 243.828125 Z M 167.144531 243.828125 "/></g><path style=" stroke:none;fill-rule:nonzero;fill:#f4a64e;fill-opacity:1;" d="M 212.625 242.050781 C 238.257812 232.847656 282.746094 223.277344 329.878906 242.617188 L 281.535156 168.535156 C 281.535156 168.535156 222.171875 155.394531 190.117188 191.125 C 190.117188 191.125 187.148438 192.757812 184.867188 195.542969 C 182.304688 198.671875 180.589844 203.253906 184.867188 208.644531 C 186.101562 210.179688 187.796875 211.792969 190.117188 213.429688 C 191.851562 214.679688 193.929688 215.929688 196.414062 217.222656 C 208.667969 223.5625 212.339844 233.230469 212.625 242.050781 Z M 212.625 242.050781 "/><g clip-rule="nonzero" clip-path="url(#24b238f75a)"><path style=" stroke:none;fill-rule:nonzero;fill:#f27c22;fill-opacity:1;" d="M 105.074219 137.8125 C 108.367188 145.179688 112.6875 152.042969 117.914062 158.019531 C 109.71875 144.433594 105.035156 129.175781 104.691406 113.894531 C 104.671875 111.976562 104.632812 110.078125 104.710938 108.179688 C 104.753906 106.285156 105.035156 104.386719 105.195312 102.507812 C 105.378906 98.714844 106.367188 95.039062 107.035156 91.347656 C 107.457031 89.511719 108.125 87.734375 108.609375 85.9375 L 109.394531 83.234375 C 109.699219 82.34375 110.082031 81.496094 110.425781 80.609375 L 112.523438 75.421875 L 115.128906 70.457031 C 118.800781 63.996094 123.101562 57.859375 128.308594 52.589844 L 130.207031 50.574219 C 130.832031 49.90625 131.578125 49.339844 132.265625 48.714844 L 136.445312 45.082031 C 139.492188 42.984375 142.335938 40.621094 145.609375 38.925781 C 158.203125 31.253906 172.859375 27.542969 187.492188 27.339844 C 202.148438 27.441406 216.820312 31.195312 229.398438 38.90625 C 232.667969 40.601562 235.511719 42.984375 238.5625 45.0625 L 242.738281 48.695312 C 243.425781 49.320312 244.171875 49.867188 244.796875 50.550781 L 246.695312 52.570312 C 251.902344 57.839844 256.222656 63.957031 259.898438 70.433594 L 262.5 75.402344 L 264.601562 80.589844 C 264.945312 81.457031 265.328125 82.324219 265.628906 83.210938 L 266.417969 85.917969 C 266.902344 87.734375 267.566406 89.488281 267.992188 91.328125 C 268.679688 95.019531 269.648438 98.695312 269.828125 102.488281 C 269.96875 104.367188 270.253906 106.265625 270.3125 108.160156 C 270.394531 110.058594 270.351562 111.957031 270.332031 113.875 C 269.988281 129.152344 265.308594 144.433594 257.113281 158 C 262.320312 152.023438 266.640625 145.160156 269.949219 137.792969 C 273.261719 130.40625 275.359375 122.472656 276.488281 114.359375 C 277.054688 110.300781 277.15625 106.183594 277.054688 102.066406 C 277.195312 97.925781 276.511719 93.851562 276.085938 89.710938 C 275.78125 87.671875 275.277344 85.65625 274.835938 83.617188 L 274.148438 80.566406 C 273.886719 79.558594 273.523438 78.589844 273.199219 77.601562 L 271.199219 71.667969 L 268.65625 65.953125 C 267.871094 64.015625 266.800781 62.199219 265.769531 60.382812 C 264.703125 58.585938 263.792969 56.667969 262.5625 54.992188 L 258.90625 49.867188 C 257.695312 48.148438 256.203125 46.675781 254.851562 45.0625 L 252.773438 42.699219 C 252.085938 41.914062 251.257812 41.246094 250.511719 40.5 L 245.910156 36.179688 C 242.558594 33.636719 239.367188 30.851562 235.695312 28.730469 C 221.484375 19.507812 204.449219 15.027344 187.554688 14.703125 L 181.214844 15.027344 L 178.046875 15.207031 L 174.898438 15.691406 C 172.796875 16.035156 170.699219 16.316406 168.621094 16.703125 L 162.460938 18.296875 C 160.382812 18.761719 158.425781 19.546875 156.449219 20.292969 C 154.488281 21.082031 152.449219 21.6875 150.554688 22.636719 L 144.859375 25.441406 C 142.945312 26.308594 141.226562 27.601562 139.410156 28.691406 C 135.738281 30.8125 132.546875 33.617188 129.195312 36.140625 L 124.59375 40.460938 C 123.847656 41.207031 123.039062 41.871094 122.335938 42.660156 L 120.253906 45.023438 C 118.902344 46.636719 117.410156 48.109375 116.199219 49.824219 L 112.523438 54.933594 C 111.273438 56.628906 110.382812 58.546875 109.316406 60.320312 C 108.265625 62.140625 107.214844 63.933594 106.429688 65.894531 L 103.886719 71.605469 L 101.886719 77.539062 C 101.5625 78.527344 101.199219 79.5 100.9375 80.507812 L 100.25 83.554688 C 99.808594 85.59375 99.304688 87.59375 99 89.652344 C 98.574219 93.789062 97.910156 97.867188 98.050781 102.003906 C 97.949219 106.121094 98.050781 110.21875 98.617188 114.296875 C 99.644531 122.492188 101.765625 130.425781 105.074219 137.8125 Z M 105.074219 137.8125 "/></g><path style=" stroke:none;fill-rule:nonzero;fill:#a27021;fill-opacity:1;" d="M 179.761719 86.382812 L 152.8125 86.382812 L 152.8125 99.683594 L 181.640625 99.683594 L 182.929688 176.226562 L 192.054688 176.226562 L 193.347656 99.683594 L 222.171875 99.683594 L 222.171875 86.382812 L 193.566406 86.382812 L 194.152344 52.933594 L 180.832031 52.933594 L 181.515625 93.324219 L 181.457031 93.730469 Z M 179.761719 86.382812 "/><g style="fill:#f27c22;fill-opacity:1;"><g transform="translate(11.119865, 313.198411)"><path style="stroke:none" d="M 19.21875 -28.75 C 21 -28.75 22.585938 -28.335938 23.984375 -27.515625 C 25.378906 -26.691406 26.460938 -25.5625 27.234375 -24.125 C 28.015625 -22.695312 28.40625 -21.085938 28.40625 -19.296875 L 28.40625 -18.765625 C 28.40625 -16.972656 28.015625 -15.351562 27.234375 -13.90625 C 26.460938 -12.457031 25.378906 -11.320312 23.984375 -10.5 C 22.585938 -9.6875 21 -9.28125 19.21875 -9.28125 L 12.328125 -9.28125 L 12.328125 0 L 3.09375 0 L 3.09375 -28.75 Z M 12.328125 -16 L 16.125 -16 C 17.101562 -16 17.832031 -16.25 18.3125 -16.75 C 18.800781 -17.25 19.046875 -17.929688 19.046875 -18.796875 L 19.046875 -19.140625 C 19.046875 -20.023438 18.800781 -20.710938 18.3125 -21.203125 C 17.832031 -21.691406 17.101562 -21.9375 16.125 -21.9375 L 12.328125 -21.9375 Z M 12.328125 -16 "/></g></g><g style="fill:#f27c22;fill-opacity:1;"><g transform="translate(43.369246, 313.198411)"><path style="stroke:none" d="M 22.359375 0 L 21.140625 -4.046875 L 11.078125 -4.046875 L 9.859375 0 L 0.421875 0 L 10.90625 -28.75 L 21.640625 -28.75 L 32.125 0 Z M 13 -10.484375 L 19.21875 -10.484375 L 16.21875 -20.71875 L 16.046875 -20.71875 Z M 13 -10.484375 "/></g></g><g style="fill:#f27c22;fill-opacity:1;"><g transform="translate(77.95792, 313.198411)"><path style="stroke:none" d="M 32.5 0 L 21.3125 0 L 16 -8.9375 L 15.828125 -8.9375 L 10.53125 0 L 0.171875 0 L 10.4375 -15.203125 L 1.171875 -28.75 L 12.328125 -28.75 L 16.671875 -21.390625 L 16.84375 -21.390625 L 21.21875 -28.75 L 31.546875 -28.75 L 22.234375 -15.171875 Z M 32.5 0 "/></g></g><g style="fill:#f27c22;fill-opacity:1;"><g transform="translate(112.546593, 313.198411)"><path style="stroke:none" d=""/></g></g><g style="fill:#f27c22;fill-opacity:1;"><g transform="translate(128.546151, 313.198411)"><path style="stroke:none" d="M 22.359375 0 L 21.140625 -4.046875 L 11.078125 -4.046875 L 9.859375 0 L 0.421875 0 L 10.90625 -28.75 L 21.640625 -28.75 L 32.125 0 Z M 13 -10.484375 L 19.21875 -10.484375 L 16.21875 -20.71875 L 16.046875 -20.71875 Z M 13 -10.484375 "/></g></g><g style="fill:#f27c22;fill-opacity:1;"><g transform="translate(163.134825, 313.198411)"><path style="stroke:none" d="M 3.09375 -28.75 L 27.953125 -28.75 L 27.953125 -21.84375 L 12.328125 -21.84375 L 12.328125 -17.875 L 25.703125 -17.875 L 25.703125 -11.28125 L 12.328125 -11.28125 L 12.328125 -6.890625 L 28.25 -6.890625 L 28.25 0 L 3.09375 0 Z M 3.09375 -28.75 "/></g></g><g style="fill:#f27c22;fill-opacity:1;"><g transform="translate(195.384206, 313.198411)"><path style="stroke:none" d="M 19.640625 -21.390625 L 19.640625 0 L 10.40625 0 L 10.40625 -21.390625 L 0.96875 -21.390625 L 0.96875 -28.75 L 29.03125 -28.75 L 29.03125 -21.390625 Z M 19.640625 -21.390625 "/></g></g><g style="fill:#f27c22;fill-opacity:1;"><g transform="translate(227.633587, 313.198411)"><path style="stroke:none" d="M 3.09375 -28.75 L 27.953125 -28.75 L 27.953125 -21.84375 L 12.328125 -21.84375 L 12.328125 -17.875 L 25.703125 -17.875 L 25.703125 -11.28125 L 12.328125 -11.28125 L 12.328125 -6.890625 L 28.25 -6.890625 L 28.25 0 L 3.09375 0 Z M 3.09375 -28.75 "/></g></g><g style="fill:#f27c22;fill-opacity:1;"><g transform="translate(259.882968, 313.198411)"><path style="stroke:none" d="M 30.375 -19.921875 C 30.375 -18.171875 29.898438 -16.582031 28.953125 -15.15625 C 28.003906 -13.738281 26.625 -12.695312 24.8125 -12.03125 L 31.203125 0 L 20.84375 0 L 15.75 -10.484375 L 12.328125 -10.484375 L 12.328125 0 L 3.09375 0 L 3.09375 -28.75 L 20.6875 -28.75 C 22.75 -28.75 24.507812 -28.347656 25.96875 -27.546875 C 27.425781 -26.753906 28.523438 -25.679688 29.265625 -24.328125 C 30.003906 -22.984375 30.375 -21.515625 30.375 -19.921875 Z M 20.96875 -19.546875 C 20.96875 -20.304688 20.71875 -20.9375 20.21875 -21.4375 C 19.71875 -21.9375 19.109375 -22.1875 18.390625 -22.1875 L 12.328125 -22.1875 L 12.328125 -16.875 L 18.390625 -16.875 C 19.109375 -16.875 19.71875 -17.128906 20.21875 -17.640625 C 20.71875 -18.160156 20.96875 -18.796875 20.96875 -19.546875 Z M 20.96875 -19.546875 "/></g></g><g style="fill:#f27c22;fill-opacity:1;"><g transform="translate(294.471641, 313.198411)"><path style="stroke:none" d="M 23.640625 0 L 11.578125 -13.953125 L 11.578125 0 L 3.09375 0 L 3.09375 -28.75 L 11.15625 -28.75 L 23.234375 -14.578125 L 23.234375 -28.75 L 31.71875 -28.75 L 31.71875 0 Z M 23.640625 0 "/></g></g><g style="fill:#f27c22;fill-opacity:1;"><g transform="translate(331.357858, 313.198411)"><path style="stroke:none" d="M 22.359375 0 L 21.140625 -4.046875 L 11.078125 -4.046875 L 9.859375 0 L 0.421875 0 L 10.90625 -28.75 L 21.640625 -28.75 L 32.125 0 Z M 13 -10.484375 L 19.21875 -10.484375 L 16.21875 -20.71875 L 16.046875 -20.71875 Z M 13 -10.484375 "/></g></g><g style="fill:#a27021;fill-opacity:1;"><g transform="translate(10.341637, 353.175018)"><path style="stroke:none" d="M 14.40625 -19.859375 L 14.40625 -17.75 L 9 -17.75 L 9 0 L 6.40625 0 L 6.40625 -17.75 L 0.96875 -17.75 L 0.96875 -19.859375 Z M 14.40625 -19.859375 "/></g></g><g style="fill:#a27021;fill-opacity:1;"><g transform="translate(33.216588, 353.175018)"><path style="stroke:none" d="M 4.78125 -17.75 L 4.78125 -11.109375 L 12.015625 -11.109375 L 12.015625 -8.96875 L 4.78125 -8.96875 L 4.78125 -2.140625 L 12.875 -2.140625 L 12.875 0 L 2.1875 0 L 2.1875 -19.875 L 12.875 -19.875 L 12.875 -17.75 Z M 4.78125 -17.75 "/></g></g><g style="fill:#a27021;fill-opacity:1;"><g transform="translate(55.29391, 353.175018)"><path style="stroke:none" d="M 11.1875 0.203125 C 9.351562 0.203125 7.675781 -0.226562 6.15625 -1.09375 C 4.632812 -1.957031 3.429688 -3.160156 2.546875 -4.703125 C 1.660156 -6.253906 1.21875 -8 1.21875 -9.9375 C 1.21875 -11.875 1.660156 -13.613281 2.546875 -15.15625 C 3.429688 -16.707031 4.632812 -17.914062 6.15625 -18.78125 C 7.675781 -19.644531 9.351562 -20.078125 11.1875 -20.078125 C 13.050781 -20.078125 14.742188 -19.644531 16.265625 -18.78125 C 17.785156 -17.914062 18.976562 -16.710938 19.84375 -15.171875 C 20.71875 -13.640625 21.15625 -11.894531 21.15625 -9.9375 C 21.15625 -7.976562 20.71875 -6.226562 19.84375 -4.6875 C 18.976562 -3.15625 17.785156 -1.957031 16.265625 -1.09375 C 14.742188 -0.226562 13.050781 0.203125 11.1875 0.203125 Z M 11.1875 -2.046875 C 12.582031 -2.046875 13.832031 -2.367188 14.9375 -3.015625 C 16.050781 -3.660156 16.925781 -4.582031 17.5625 -5.78125 C 18.195312 -6.976562 18.515625 -8.363281 18.515625 -9.9375 C 18.515625 -11.53125 18.195312 -12.921875 17.5625 -14.109375 C 16.925781 -15.296875 16.054688 -16.210938 14.953125 -16.859375 C 13.847656 -17.503906 12.59375 -17.828125 11.1875 -17.828125 C 9.789062 -17.828125 8.539062 -17.503906 7.4375 -16.859375 C 6.332031 -16.210938 5.460938 -15.296875 4.828125 -14.109375 C 4.191406 -12.921875 3.875 -11.53125 3.875 -9.9375 C 3.875 -8.363281 4.191406 -6.976562 4.828125 -5.78125 C 5.460938 -4.582031 6.332031 -3.660156 7.4375 -3.015625 C 8.550781 -2.367188 9.800781 -2.046875 11.1875 -2.046875 Z M 11.1875 -2.046875 "/></g></g><g style="fill:#a27021;fill-opacity:1;"><g transform="translate(85.148141, 353.175018)"><path style="stroke:none" d="M 4.78125 -2.109375 L 11.734375 -2.109375 L 11.734375 0 L 2.1875 0 L 2.1875 -19.859375 L 4.78125 -19.859375 Z M 4.78125 -2.109375 "/></g></g><g style="fill:#a27021;fill-opacity:1;"><g transform="translate(104.918031, 353.175018)"><path style="stroke:none" d="M 11.1875 0.203125 C 9.351562 0.203125 7.675781 -0.226562 6.15625 -1.09375 C 4.632812 -1.957031 3.429688 -3.160156 2.546875 -4.703125 C 1.660156 -6.253906 1.21875 -8 1.21875 -9.9375 C 1.21875 -11.875 1.660156 -13.613281 2.546875 -15.15625 C 3.429688 -16.707031 4.632812 -17.914062 6.15625 -18.78125 C 7.675781 -19.644531 9.351562 -20.078125 11.1875 -20.078125 C 13.050781 -20.078125 14.742188 -19.644531 16.265625 -18.78125 C 17.785156 -17.914062 18.976562 -16.710938 19.84375 -15.171875 C 20.71875 -13.640625 21.15625 -11.894531 21.15625 -9.9375 C 21.15625 -7.976562 20.71875 -6.226562 19.84375 -4.6875 C 18.976562 -3.15625 17.785156 -1.957031 16.265625 -1.09375 C 14.742188 -0.226562 13.050781 0.203125 11.1875 0.203125 Z M 11.1875 -2.046875 C 12.582031 -2.046875 13.832031 -2.367188 14.9375 -3.015625 C 16.050781 -3.660156 16.925781 -4.582031 17.5625 -5.78125 C 18.195312 -6.976562 18.515625 -8.363281 18.515625 -9.9375 C 18.515625 -11.53125 18.195312 -12.921875 17.5625 -14.109375 C 16.925781 -15.296875 16.054688 -16.210938 14.953125 -16.859375 C 13.847656 -17.503906 12.59375 -17.828125 11.1875 -17.828125 C 9.789062 -17.828125 8.539062 -17.503906 7.4375 -16.859375 C 6.332031 -16.210938 5.460938 -15.296875 4.828125 -14.109375 C 4.191406 -12.921875 3.875 -11.53125 3.875 -9.9375 C 3.875 -8.363281 4.191406 -6.976562 4.828125 -5.78125 C 5.460938 -4.582031 6.332031 -3.660156 7.4375 -3.015625 C 8.550781 -2.367188 9.800781 -2.046875 11.1875 -2.046875 Z M 11.1875 -2.046875 "/></g></g><g style="fill:#a27021;fill-opacity:1;"><g transform="translate(134.772263, 353.175018)"><path style="stroke:none" d="M 17.234375 -14.09375 C 16.679688 -15.257812 15.882812 -16.160156 14.84375 -16.796875 C 13.800781 -17.429688 12.582031 -17.75 11.1875 -17.75 C 9.800781 -17.75 8.550781 -17.429688 7.4375 -16.796875 C 6.332031 -16.160156 5.460938 -15.25 4.828125 -14.0625 C 4.191406 -12.875 3.875 -11.5 3.875 -9.9375 C 3.875 -8.382812 4.191406 -7.019531 4.828125 -5.84375 C 5.460938 -4.664062 6.332031 -3.757812 7.4375 -3.125 C 8.550781 -2.488281 9.800781 -2.171875 11.1875 -2.171875 C 13.125 -2.171875 14.71875 -2.75 15.96875 -3.90625 C 17.226562 -5.0625 17.960938 -6.628906 18.171875 -8.609375 L 10.25 -8.609375 L 10.25 -10.703125 L 20.9375 -10.703125 L 20.9375 -8.71875 C 20.78125 -7.082031 20.265625 -5.582031 19.390625 -4.21875 C 18.523438 -2.863281 17.378906 -1.789062 15.953125 -1 C 14.523438 -0.21875 12.9375 0.171875 11.1875 0.171875 C 9.351562 0.171875 7.675781 -0.257812 6.15625 -1.125 C 4.632812 -1.988281 3.429688 -3.1875 2.546875 -4.71875 C 1.660156 -6.257812 1.21875 -8 1.21875 -9.9375 C 1.21875 -11.875 1.660156 -13.613281 2.546875 -15.15625 C 3.429688 -16.707031 4.632812 -17.914062 6.15625 -18.78125 C 7.675781 -19.644531 9.351562 -20.078125 11.1875 -20.078125 C 13.300781 -20.078125 15.171875 -19.554688 16.796875 -18.515625 C 18.421875 -17.472656 19.601562 -16 20.34375 -14.09375 Z M 17.234375 -14.09375 "/></g></g><g style="fill:#a27021;fill-opacity:1;"><g transform="translate(164.398594, 353.175018)"><path style="stroke:none" d="M 4.78125 -19.859375 L 4.78125 0 L 2.1875 0 L 2.1875 -19.859375 Z M 4.78125 -19.859375 "/></g></g><g style="fill:#a27021;fill-opacity:1;"><g transform="translate(178.86992, 353.175018)"><path style="stroke:none" d="M 13.921875 -4.421875 L 5.265625 -4.421875 L 3.671875 0 L 0.9375 0 L 8.125 -19.734375 L 11.109375 -19.734375 L 18.265625 0 L 15.53125 0 Z M 13.1875 -6.515625 L 9.59375 -16.546875 L 6.015625 -6.515625 Z M 13.1875 -6.515625 "/></g></g><g style="fill:#a27021;fill-opacity:1;"><g transform="translate(205.533612, 353.175018)"><path style="stroke:none" d=""/></g></g><g style="fill:#a27021;fill-opacity:1;"><g transform="translate(220.603161, 353.175018)"><path style="stroke:none" d="M 17.796875 0 L 15.203125 0 L 4.78125 -15.8125 L 4.78125 0 L 2.1875 0 L 2.1875 -19.875 L 4.78125 -19.875 L 15.203125 -4.109375 L 15.203125 -19.875 L 17.796875 -19.875 Z M 17.796875 0 "/></g></g><g style="fill:#a27021;fill-opacity:1;"><g transform="translate(248.092975, 353.175018)"><path style="stroke:none" d="M 13.921875 -4.421875 L 5.265625 -4.421875 L 3.671875 0 L 0.9375 0 L 8.125 -19.734375 L 11.109375 -19.734375 L 18.265625 0 L 15.53125 0 Z M 13.1875 -6.515625 L 9.59375 -16.546875 L 6.015625 -6.515625 Z M 13.1875 -6.515625 "/></g></g><g style="fill:#a27021;fill-opacity:1;"><g transform="translate(274.756668, 353.175018)"><path style="stroke:none" d=""/></g></g><g style="fill:#a27021;fill-opacity:1;"><g transform="translate(289.826216, 353.175018)"><path style="stroke:none" d="M 27.140625 -19.859375 L 21.390625 0 L 18.484375 0 L 13.875 -15.984375 L 9.09375 0 L 6.203125 0.03125 L 0.65625 -19.859375 L 3.421875 -19.859375 L 7.75 -3.015625 L 12.53125 -19.859375 L 15.4375 -19.859375 L 20 -3.078125 L 24.359375 -19.859375 Z M 27.140625 -19.859375 "/></g></g><g style="fill:#a27021;fill-opacity:1;"><g transform="translate(325.092961, 353.175018)"><path style="stroke:none" d="M 4.78125 -17.75 L 4.78125 -11.109375 L 12.015625 -11.109375 L 12.015625 -8.96875 L 4.78125 -8.96875 L 4.78125 -2.140625 L 12.875 -2.140625 L 12.875 0 L 2.1875 0 L 2.1875 -19.875 L 12.875 -19.875 L 12.875 -17.75 Z M 4.78125 -17.75 "/></g></g><g style="fill:#a27021;fill-opacity:1;"><g transform="translate(347.170283, 353.175018)"><path style="stroke:none" d="M 12.140625 -10.21875 C 12.859375 -10.113281 13.515625 -9.820312 14.109375 -9.34375 C 14.710938 -8.863281 15.1875 -8.269531 15.53125 -7.5625 C 15.882812 -6.863281 16.0625 -6.117188 16.0625 -5.328125 C 16.0625 -4.316406 15.804688 -3.40625 15.296875 -2.59375 C 14.785156 -1.789062 14.039062 -1.15625 13.0625 -0.6875 C 12.082031 -0.226562 10.925781 0 9.59375 0 L 2.1875 0 L 2.1875 -19.859375 L 9.3125 -19.859375 C 10.664062 -19.859375 11.816406 -19.632812 12.765625 -19.1875 C 13.710938 -18.738281 14.421875 -18.132812 14.890625 -17.375 C 15.367188 -16.613281 15.609375 -15.757812 15.609375 -14.8125 C 15.609375 -13.632812 15.289062 -12.660156 14.65625 -11.890625 C 14.019531 -11.117188 13.179688 -10.5625 12.140625 -10.21875 Z M 4.78125 -11.28125 L 9.140625 -11.28125 C 10.359375 -11.28125 11.296875 -11.5625 11.953125 -12.125 C 12.617188 -12.695312 12.953125 -13.488281 12.953125 -14.5 C 12.953125 -15.507812 12.617188 -16.296875 11.953125 -16.859375 C 11.296875 -17.429688 10.34375 -17.71875 9.09375 -17.71875 L 4.78125 -17.71875 Z M 9.375 -2.140625 C 10.664062 -2.140625 11.671875 -2.441406 12.390625 -3.046875 C 13.109375 -3.648438 13.46875 -4.492188 13.46875 -5.578125 C 13.46875 -6.679688 13.085938 -7.550781 12.328125 -8.1875 C 11.566406 -8.820312 10.550781 -9.140625 9.28125 -9.140625 L 4.78125 -9.140625 L 4.78125 -2.140625 Z M 9.375 -2.140625 "/></g></g></g></svg>