<svg xmlns="http://www.w3.org/2000/svg" xmlns:xlink="http://www.w3.org/1999/xlink" width="500" zoomAndPan="magnify" viewBox="0 0 375 374.999991" height="500" preserveAspectRatio="xMidYMid meet" version="1.2"><defs><clipPath id="c628725e7c"><path d="M 104 230 L 182 230 L 182 249.257812 L 104 249.257812 Z M 104 230 "/></clipPath><clipPath id="cc7569416e"><path d="M 193 230 L 271 230 L 271 249.257812 L 193 249.257812 Z M 193 230 "/></clipPath><clipPath id="f4ce0edcc6"><path d="M 88.179688 172 L 186 172 L 186 227 L 88.179688 227 Z M 88.179688 172 "/></clipPath><clipPath id="45de27650c"><path d="M 183 172 L 286.929688 172 L 286.929688 226 L 183 226 Z M 183 172 "/></clipPath><clipPath id="ea2f32b5ab"><path d="M 125 67.007812 L 250 67.007812 L 250 167 L 125 167 Z M 125 67.007812 "/></clipPath></defs><g id="872425d5e7"><path style=" stroke:none;fill-rule:nonzero;fill:#a27021;fill-opacity:1;" d="M 177.78125 232.519531 C 177.78125 232.519531 138.214844 213.460938 98.820312 229.042969 L 89.667969 243.148438 C 89.667969 243.148438 130.828125 217.742188 177.78125 232.519531 Z M 177.78125 232.519531 "/><g clip-rule="nonzero" clip-path="url(#c628725e7c)"><path style=" stroke:none;fill-rule:nonzero;fill:#a27021;fill-opacity:1;" d="M 113.121094 236.800781 L 104.082031 249.257812 C 104.082031 249.257812 140.230469 228.003906 181.273438 238.023438 C 181.257812 238.023438 147.800781 222.878906 113.121094 236.800781 Z M 113.121094 236.800781 "/></g><path style=" stroke:none;fill-rule:nonzero;fill:#a27021;fill-opacity:1;" d="M 197.207031 232.519531 C 244.164062 217.742188 285.320312 243.148438 285.320312 243.148438 L 276.15625 229.042969 C 236.773438 213.460938 197.207031 232.519531 197.207031 232.519531 Z M 197.207031 232.519531 "/><g clip-rule="nonzero" clip-path="url(#cc7569416e)"><path style=" stroke:none;fill-rule:nonzero;fill:#a27021;fill-opacity:1;" d="M 193.730469 238.023438 C 234.761719 228.015625 270.921875 249.257812 270.921875 249.257812 L 261.882812 236.800781 C 227.1875 222.878906 193.730469 238.023438 193.730469 238.023438 Z M 193.730469 238.023438 "/></g><g clip-rule="nonzero" clip-path="url(#f4ce0edcc6)"><path style=" stroke:none;fill-rule:nonzero;fill:#f4a64e;fill-opacity:1;" d="M 173.304688 226.777344 C 175.753906 222.273438 176.136719 216.980469 171.25 211.394531 C 157.824219 196.007812 185.664062 190.027344 185.664062 190.027344 C 163.3125 165.113281 121.917969 174.277344 121.917969 174.277344 L 88.207031 225.933594 C 123.210938 211.574219 156.132812 220.0625 173.304688 226.777344 Z M 173.304688 226.777344 "/></g><g clip-rule="nonzero" clip-path="url(#45de27650c)"><path style=" stroke:none;fill-rule:nonzero;fill:#f4a64e;fill-opacity:1;" d="M 205.019531 225.539062 C 222.894531 219.121094 253.917969 212.449219 286.785156 225.933594 L 253.074219 174.277344 C 253.074219 174.277344 211.675781 165.113281 189.324219 190.027344 C 189.324219 190.027344 187.253906 191.167969 185.664062 193.109375 C 183.878906 195.289062 182.679688 198.484375 185.664062 202.242188 C 186.523438 203.3125 187.707031 204.441406 189.324219 205.578125 C 190.535156 206.453125 191.984375 207.324219 193.714844 208.226562 C 202.261719 212.644531 204.820312 219.386719 205.019531 225.539062 Z M 205.019531 225.539062 "/></g><g clip-rule="nonzero" clip-path="url(#ea2f32b5ab)"><path style=" stroke:none;fill-rule:nonzero;fill:#f27c22;fill-opacity:1;" d="M 130.023438 152.851562 C 132.320312 157.992188 135.332031 162.777344 138.976562 166.941406 C 133.261719 157.46875 129.996094 146.828125 129.757812 136.171875 C 129.742188 134.835938 129.714844 133.511719 129.769531 132.191406 C 129.800781 130.867188 129.996094 129.542969 130.109375 128.234375 C 130.234375 125.589844 130.925781 123.027344 131.390625 120.449219 C 131.683594 119.171875 132.148438 117.929688 132.488281 116.679688 L 133.035156 114.792969 C 133.246094 114.171875 133.515625 113.582031 133.753906 112.960938 L 135.21875 109.34375 L 137.035156 105.882812 C 139.59375 101.378906 142.59375 97.101562 146.226562 93.425781 L 147.546875 92.019531 C 147.984375 91.554688 148.503906 91.160156 148.984375 90.722656 L 151.898438 88.191406 C 154.023438 86.726562 156.007812 85.078125 158.289062 83.898438 C 167.070312 78.546875 177.289062 75.957031 187.496094 75.816406 C 197.714844 75.886719 207.945312 78.507812 216.714844 83.882812 C 218.996094 85.066406 220.980469 86.726562 223.105469 88.175781 L 226.019531 90.710938 C 226.496094 91.144531 227.019531 91.527344 227.457031 92.003906 L 228.777344 93.410156 C 232.410156 97.085938 235.421875 101.351562 237.984375 105.867188 L 239.800781 109.332031 L 241.261719 112.949219 C 241.503906 113.554688 241.769531 114.160156 241.980469 114.777344 L 242.53125 116.664062 C 242.867188 117.929688 243.332031 119.15625 243.628906 120.4375 C 244.105469 123.011719 244.78125 125.574219 244.910156 128.222656 C 245.007812 129.53125 245.203125 130.851562 245.246094 132.175781 C 245.304688 133.5 245.273438 134.820312 245.261719 136.160156 C 245.019531 146.816406 241.757812 157.46875 236.042969 166.929688 C 239.671875 162.761719 242.683594 157.976562 244.992188 152.839844 C 247.300781 147.6875 248.765625 142.15625 249.554688 136.496094 C 249.949219 133.667969 250.019531 130.796875 249.949219 127.925781 C 250.046875 125.039062 249.566406 122.195312 249.273438 119.3125 C 249.0625 117.890625 248.710938 116.480469 248.398438 115.058594 L 247.921875 112.933594 C 247.738281 112.230469 247.484375 111.554688 247.257812 110.867188 L 245.867188 106.726562 L 244.09375 102.742188 C 243.542969 101.394531 242.796875 100.125 242.078125 98.859375 C 241.332031 97.605469 240.699219 96.269531 239.839844 95.101562 L 237.292969 91.527344 C 236.449219 90.328125 235.40625 89.300781 234.464844 88.175781 L 233.015625 86.527344 C 232.535156 85.980469 231.960938 85.515625 231.4375 84.996094 L 228.230469 81.984375 C 225.894531 80.210938 223.667969 78.265625 221.105469 76.789062 C 211.199219 70.355469 199.316406 67.230469 187.535156 67.007812 L 183.117188 67.230469 L 180.90625 67.359375 L 178.710938 67.695312 C 177.246094 67.933594 175.785156 68.132812 174.335938 68.398438 L 170.042969 69.511719 C 168.589844 69.835938 167.226562 70.382812 165.847656 70.90625 C 164.480469 71.453125 163.058594 71.875 161.738281 72.539062 L 157.765625 74.496094 C 156.429688 75.101562 155.234375 76 153.96875 76.761719 C 151.40625 78.238281 149.179688 80.195312 146.84375 81.953125 L 143.636719 84.964844 C 143.113281 85.488281 142.550781 85.953125 142.058594 86.5 L 140.609375 88.148438 C 139.667969 89.273438 138.625 90.300781 137.78125 91.496094 L 135.21875 95.058594 C 134.34375 96.242188 133.726562 97.578125 132.980469 98.816406 C 132.25 100.082031 131.515625 101.335938 130.96875 102.703125 L 129.195312 106.683594 L 127.800781 110.824219 C 127.574219 111.511719 127.320312 112.1875 127.140625 112.890625 L 126.660156 115.019531 C 126.351562 116.441406 126 117.832031 125.789062 119.269531 C 125.492188 122.152344 125.027344 124.996094 125.125 127.882812 C 125.054688 130.753906 125.125 133.613281 125.519531 136.453125 C 126.238281 142.167969 127.714844 147.703125 130.023438 152.851562 Z M 130.023438 152.851562 "/></g><path style=" stroke:none;fill-rule:nonzero;fill:#a27021;fill-opacity:1;" d="M 182.105469 116.988281 L 163.3125 116.988281 L 163.3125 126.265625 L 183.414062 126.265625 L 184.3125 179.636719 L 190.675781 179.636719 L 191.578125 126.265625 L 211.675781 126.265625 L 211.675781 116.988281 L 191.730469 116.988281 L 192.140625 93.664062 L 182.851562 93.664062 L 183.328125 121.832031 L 183.285156 122.113281 Z M 182.105469 116.988281 "/><g style="fill:#f27c22;fill-opacity:1;"><g transform="translate(64.507504, 275.151375)"><path style="stroke:none" d="M 13.390625 -20.03125 C 14.640625 -20.03125 15.75 -19.742188 16.71875 -19.171875 C 17.6875 -18.597656 18.441406 -17.8125 18.984375 -16.8125 C 19.535156 -15.8125 19.8125 -14.691406 19.8125 -13.453125 L 19.8125 -13.078125 C 19.8125 -11.835938 19.535156 -10.710938 18.984375 -9.703125 C 18.441406 -8.691406 17.6875 -7.898438 16.71875 -7.328125 C 15.75 -6.753906 14.640625 -6.46875 13.390625 -6.46875 L 8.59375 -6.46875 L 8.59375 0 L 2.15625 0 L 2.15625 -20.03125 Z M 8.59375 -11.15625 L 11.25 -11.15625 C 11.925781 -11.15625 12.429688 -11.328125 12.765625 -11.671875 C 13.109375 -12.023438 13.28125 -12.503906 13.28125 -13.109375 L 13.28125 -13.34375 C 13.28125 -13.957031 13.109375 -14.4375 12.765625 -14.78125 C 12.429688 -15.125 11.925781 -15.296875 11.25 -15.296875 L 8.59375 -15.296875 Z M 8.59375 -11.15625 "/></g></g><g style="fill:#f27c22;fill-opacity:1;"><g transform="translate(86.995477, 275.151375)"><path style="stroke:none" d="M 15.578125 0 L 14.734375 -2.828125 L 7.71875 -2.828125 L 6.875 0 L 0.296875 0 L 7.609375 -20.03125 L 15.09375 -20.03125 L 22.390625 0 Z M 9.0625 -7.3125 L 13.390625 -7.3125 L 11.296875 -14.453125 L 11.1875 -14.453125 Z M 9.0625 -7.3125 "/></g></g><g style="fill:#f27c22;fill-opacity:1;"><g transform="translate(111.114673, 275.151375)"><path style="stroke:none" d="M 22.65625 0 L 14.859375 0 L 11.15625 -6.234375 L 11.03125 -6.234375 L 7.34375 0 L 0.109375 0 L 7.28125 -10.59375 L 0.8125 -20.03125 L 8.59375 -20.03125 L 11.625 -14.90625 L 11.734375 -14.90625 L 14.796875 -20.03125 L 21.984375 -20.03125 L 15.5 -10.578125 Z M 22.65625 0 "/></g></g><g style="fill:#f27c22;fill-opacity:1;"><g transform="translate(135.233869, 275.151375)"><path style="stroke:none" d=""/></g></g><g style="fill:#f27c22;fill-opacity:1;"><g transform="translate(146.390599, 275.151375)"><path style="stroke:none" d="M 15.578125 0 L 14.734375 -2.828125 L 7.71875 -2.828125 L 6.875 0 L 0.296875 0 L 7.609375 -20.03125 L 15.09375 -20.03125 L 22.390625 0 Z M 9.0625 -7.3125 L 13.390625 -7.3125 L 11.296875 -14.453125 L 11.1875 -14.453125 Z M 9.0625 -7.3125 "/></g></g><g style="fill:#f27c22;fill-opacity:1;"><g transform="translate(170.509795, 275.151375)"><path style="stroke:none" d="M 2.15625 -20.03125 L 19.484375 -20.03125 L 19.484375 -15.234375 L 8.59375 -15.234375 L 8.59375 -12.46875 L 17.90625 -12.46875 L 17.90625 -7.859375 L 8.59375 -7.859375 L 8.59375 -4.8125 L 19.6875 -4.8125 L 19.6875 0 L 2.15625 0 Z M 2.15625 -20.03125 "/></g></g><g style="fill:#f27c22;fill-opacity:1;"><g transform="translate(192.997768, 275.151375)"><path style="stroke:none" d="M 13.6875 -14.90625 L 13.6875 0 L 7.25 0 L 7.25 -14.90625 L 0.671875 -14.90625 L 0.671875 -20.03125 L 20.234375 -20.03125 L 20.234375 -14.90625 Z M 13.6875 -14.90625 "/></g></g><g style="fill:#f27c22;fill-opacity:1;"><g transform="translate(215.48574, 275.151375)"><path style="stroke:none" d="M 2.15625 -20.03125 L 19.484375 -20.03125 L 19.484375 -15.234375 L 8.59375 -15.234375 L 8.59375 -12.46875 L 17.90625 -12.46875 L 17.90625 -7.859375 L 8.59375 -7.859375 L 8.59375 -4.8125 L 19.6875 -4.8125 L 19.6875 0 L 2.15625 0 Z M 2.15625 -20.03125 "/></g></g><g style="fill:#f27c22;fill-opacity:1;"><g transform="translate(237.973713, 275.151375)"><path style="stroke:none" d="M 21.171875 -13.890625 C 21.171875 -12.671875 20.835938 -11.566406 20.171875 -10.578125 C 19.515625 -9.585938 18.554688 -8.859375 17.296875 -8.390625 L 21.75 0 L 14.53125 0 L 10.984375 -7.3125 L 8.59375 -7.3125 L 8.59375 0 L 2.15625 0 L 2.15625 -20.03125 L 14.421875 -20.03125 C 15.859375 -20.03125 17.082031 -19.753906 18.09375 -19.203125 C 19.113281 -18.648438 19.878906 -17.898438 20.390625 -16.953125 C 20.910156 -16.015625 21.171875 -14.992188 21.171875 -13.890625 Z M 14.625 -13.625 C 14.625 -14.15625 14.445312 -14.59375 14.09375 -14.9375 C 13.75 -15.289062 13.320312 -15.46875 12.8125 -15.46875 L 8.59375 -15.46875 L 8.59375 -11.765625 L 12.8125 -11.765625 C 13.320312 -11.765625 13.75 -11.941406 14.09375 -12.296875 C 14.445312 -12.660156 14.625 -13.101562 14.625 -13.625 Z M 14.625 -13.625 "/></g></g><g style="fill:#f27c22;fill-opacity:1;"><g transform="translate(262.092909, 275.151375)"><path style="stroke:none" d="M 16.484375 0 L 8.0625 -9.734375 L 8.0625 0 L 2.15625 0 L 2.15625 -20.03125 L 7.78125 -20.03125 L 16.1875 -10.171875 L 16.1875 -20.03125 L 22.109375 -20.03125 L 22.109375 0 Z M 16.484375 0 "/></g></g><g style="fill:#f27c22;fill-opacity:1;"><g transform="translate(287.814216, 275.151375)"><path style="stroke:none" d="M 15.578125 0 L 14.734375 -2.828125 L 7.71875 -2.828125 L 6.875 0 L 0.296875 0 L 7.609375 -20.03125 L 15.09375 -20.03125 L 22.390625 0 Z M 9.0625 -7.3125 L 13.390625 -7.3125 L 11.296875 -14.453125 L 11.1875 -14.453125 Z M 9.0625 -7.3125 "/></g></g><g style="fill:#a27021;fill-opacity:1;"><g transform="translate(63.964831, 303.027631)"><path style="stroke:none" d="M 10.046875 -13.84375 L 10.046875 -12.375 L 6.28125 -12.375 L 6.28125 0 L 4.46875 0 L 4.46875 -12.375 L 0.671875 -12.375 L 0.671875 -13.84375 Z M 10.046875 -13.84375 "/></g></g><g style="fill:#a27021;fill-opacity:1;"><g transform="translate(79.915875, 303.027631)"><path style="stroke:none" d="M 3.34375 -12.375 L 3.34375 -7.75 L 8.375 -7.75 L 8.375 -6.25 L 3.34375 -6.25 L 3.34375 -1.484375 L 8.96875 -1.484375 L 8.96875 0 L 1.53125 0 L 1.53125 -13.859375 L 8.96875 -13.859375 L 8.96875 -12.375 Z M 3.34375 -12.375 "/></g></g><g style="fill:#a27021;fill-opacity:1;"><g transform="translate(95.310719, 303.027631)"><path style="stroke:none" d="M 7.8125 0.140625 C 6.519531 0.140625 5.34375 -0.160156 4.28125 -0.765625 C 3.226562 -1.367188 2.394531 -2.207031 1.78125 -3.28125 C 1.164062 -4.363281 0.859375 -5.582031 0.859375 -6.9375 C 0.859375 -8.28125 1.164062 -9.488281 1.78125 -10.5625 C 2.394531 -11.644531 3.226562 -12.488281 4.28125 -13.09375 C 5.34375 -13.695312 6.519531 -14 7.8125 -14 C 9.101562 -14 10.273438 -13.695312 11.328125 -13.09375 C 12.390625 -12.488281 13.222656 -11.648438 13.828125 -10.578125 C 14.441406 -9.503906 14.75 -8.289062 14.75 -6.9375 C 14.75 -5.570312 14.441406 -4.351562 13.828125 -3.28125 C 13.222656 -2.207031 12.390625 -1.367188 11.328125 -0.765625 C 10.273438 -0.160156 9.101562 0.140625 7.8125 0.140625 Z M 7.8125 -1.4375 C 8.769531 -1.4375 9.632812 -1.660156 10.40625 -2.109375 C 11.1875 -2.554688 11.796875 -3.195312 12.234375 -4.03125 C 12.679688 -4.863281 12.90625 -5.832031 12.90625 -6.9375 C 12.90625 -8.039062 12.679688 -9.003906 12.234375 -9.828125 C 11.796875 -10.660156 11.191406 -11.300781 10.421875 -11.75 C 9.660156 -12.207031 8.789062 -12.4375 7.8125 -12.4375 C 6.820312 -12.4375 5.941406 -12.207031 5.171875 -11.75 C 4.410156 -11.300781 3.804688 -10.660156 3.359375 -9.828125 C 2.921875 -9.003906 2.703125 -8.039062 2.703125 -6.9375 C 2.703125 -5.832031 2.921875 -4.863281 3.359375 -4.03125 C 3.804688 -3.195312 4.414062 -2.554688 5.1875 -2.109375 C 5.96875 -1.660156 6.84375 -1.4375 7.8125 -1.4375 Z M 7.8125 -1.4375 "/></g></g><g style="fill:#a27021;fill-opacity:1;"><g transform="translate(116.128518, 303.027631)"><path style="stroke:none" d="M 3.34375 -1.46875 L 8.1875 -1.46875 L 8.1875 0 L 1.53125 0 L 1.53125 -13.84375 L 3.34375 -13.84375 Z M 3.34375 -1.46875 "/></g></g><g style="fill:#a27021;fill-opacity:1;"><g transform="translate(129.914356, 303.027631)"><path style="stroke:none" d="M 7.8125 0.140625 C 6.519531 0.140625 5.34375 -0.160156 4.28125 -0.765625 C 3.226562 -1.367188 2.394531 -2.207031 1.78125 -3.28125 C 1.164062 -4.363281 0.859375 -5.582031 0.859375 -6.9375 C 0.859375 -8.28125 1.164062 -9.488281 1.78125 -10.5625 C 2.394531 -11.644531 3.226562 -12.488281 4.28125 -13.09375 C 5.34375 -13.695312 6.519531 -14 7.8125 -14 C 9.101562 -14 10.273438 -13.695312 11.328125 -13.09375 C 12.390625 -12.488281 13.222656 -11.648438 13.828125 -10.578125 C 14.441406 -9.503906 14.75 -8.289062 14.75 -6.9375 C 14.75 -5.570312 14.441406 -4.351562 13.828125 -3.28125 C 13.222656 -2.207031 12.390625 -1.367188 11.328125 -0.765625 C 10.273438 -0.160156 9.101562 0.140625 7.8125 0.140625 Z M 7.8125 -1.4375 C 8.769531 -1.4375 9.632812 -1.660156 10.40625 -2.109375 C 11.1875 -2.554688 11.796875 -3.195312 12.234375 -4.03125 C 12.679688 -4.863281 12.90625 -5.832031 12.90625 -6.9375 C 12.90625 -8.039062 12.679688 -9.003906 12.234375 -9.828125 C 11.796875 -10.660156 11.191406 -11.300781 10.421875 -11.75 C 9.660156 -12.207031 8.789062 -12.4375 7.8125 -12.4375 C 6.820312 -12.4375 5.941406 -12.207031 5.171875 -11.75 C 4.410156 -11.300781 3.804688 -10.660156 3.359375 -9.828125 C 2.921875 -9.003906 2.703125 -8.039062 2.703125 -6.9375 C 2.703125 -5.832031 2.921875 -4.863281 3.359375 -4.03125 C 3.804688 -3.195312 4.414062 -2.554688 5.1875 -2.109375 C 5.96875 -1.660156 6.84375 -1.4375 7.8125 -1.4375 Z M 7.8125 -1.4375 "/></g></g><g style="fill:#a27021;fill-opacity:1;"><g transform="translate(150.732156, 303.027631)"><path style="stroke:none" d="M 12.015625 -9.828125 C 11.628906 -10.640625 11.070312 -11.265625 10.34375 -11.703125 C 9.613281 -12.148438 8.769531 -12.375 7.8125 -12.375 C 6.84375 -12.375 5.96875 -12.148438 5.1875 -11.703125 C 4.414062 -11.265625 3.804688 -10.628906 3.359375 -9.796875 C 2.921875 -8.972656 2.703125 -8.019531 2.703125 -6.9375 C 2.703125 -5.84375 2.921875 -4.882812 3.359375 -4.0625 C 3.804688 -3.25 4.414062 -2.617188 5.1875 -2.171875 C 5.96875 -1.734375 6.84375 -1.515625 7.8125 -1.515625 C 9.15625 -1.515625 10.265625 -1.914062 11.140625 -2.71875 C 12.015625 -3.53125 12.523438 -4.625 12.671875 -6 L 7.15625 -6 L 7.15625 -7.46875 L 14.59375 -7.46875 L 14.59375 -6.078125 C 14.488281 -4.941406 14.128906 -3.898438 13.515625 -2.953125 C 12.910156 -2.003906 12.109375 -1.253906 11.109375 -0.703125 C 10.117188 -0.148438 9.019531 0.125 7.8125 0.125 C 6.519531 0.125 5.34375 -0.175781 4.28125 -0.78125 C 3.226562 -1.382812 2.394531 -2.222656 1.78125 -3.296875 C 1.164062 -4.367188 0.859375 -5.582031 0.859375 -6.9375 C 0.859375 -8.28125 1.164062 -9.488281 1.78125 -10.5625 C 2.394531 -11.644531 3.226562 -12.488281 4.28125 -13.09375 C 5.34375 -13.695312 6.519531 -14 7.8125 -14 C 9.28125 -14 10.578125 -13.632812 11.703125 -12.90625 C 12.835938 -12.175781 13.660156 -11.148438 14.171875 -9.828125 Z M 12.015625 -9.828125 "/></g></g><g style="fill:#a27021;fill-opacity:1;"><g transform="translate(171.391037, 303.027631)"><path style="stroke:none" d="M 3.34375 -13.84375 L 3.34375 0 L 1.53125 0 L 1.53125 -13.84375 Z M 3.34375 -13.84375 "/></g></g><g style="fill:#a27021;fill-opacity:1;"><g transform="translate(181.482108, 303.027631)"><path style="stroke:none" d="M 9.71875 -3.078125 L 3.671875 -3.078125 L 2.5625 0 L 0.65625 0 L 5.65625 -13.765625 L 7.75 -13.765625 L 12.734375 0 L 10.828125 0 Z M 9.1875 -4.546875 L 6.6875 -11.53125 L 4.1875 -4.546875 Z M 9.1875 -4.546875 "/></g></g><g style="fill:#a27021;fill-opacity:1;"><g transform="translate(200.075097, 303.027631)"><path style="stroke:none" d=""/></g></g><g style="fill:#a27021;fill-opacity:1;"><g transform="translate(210.583317, 303.027631)"><path style="stroke:none" d="M 12.40625 0 L 10.609375 0 L 3.34375 -11.015625 L 3.34375 0 L 1.53125 0 L 1.53125 -13.859375 L 3.34375 -13.859375 L 10.609375 -2.859375 L 10.609375 -13.859375 L 12.40625 -13.859375 Z M 12.40625 0 "/></g></g><g style="fill:#a27021;fill-opacity:1;"><g transform="translate(229.752373, 303.027631)"><path style="stroke:none" d="M 9.71875 -3.078125 L 3.671875 -3.078125 L 2.5625 0 L 0.65625 0 L 5.65625 -13.765625 L 7.75 -13.765625 L 12.734375 0 L 10.828125 0 Z M 9.1875 -4.546875 L 6.6875 -11.53125 L 4.1875 -4.546875 Z M 9.1875 -4.546875 "/></g></g><g style="fill:#a27021;fill-opacity:1;"><g transform="translate(248.345362, 303.027631)"><path style="stroke:none" d=""/></g></g><g style="fill:#a27021;fill-opacity:1;"><g transform="translate(258.853582, 303.027631)"><path style="stroke:none" d="M 18.921875 -13.84375 L 14.921875 0 L 12.890625 0 L 9.671875 -11.140625 L 6.328125 0 L 4.328125 0.015625 L 0.453125 -13.84375 L 2.390625 -13.84375 L 5.40625 -2.109375 L 8.734375 -13.84375 L 10.765625 -13.84375 L 13.9375 -2.140625 L 16.984375 -13.84375 Z M 18.921875 -13.84375 "/></g></g><g style="fill:#a27021;fill-opacity:1;"><g transform="translate(283.445608, 303.027631)"><path style="stroke:none" d="M 3.34375 -12.375 L 3.34375 -7.75 L 8.375 -7.75 L 8.375 -6.25 L 3.34375 -6.25 L 3.34375 -1.484375 L 8.96875 -1.484375 L 8.96875 0 L 1.53125 0 L 1.53125 -13.859375 L 8.96875 -13.859375 L 8.96875 -12.375 Z M 3.34375 -12.375 "/></g></g><g style="fill:#a27021;fill-opacity:1;"><g transform="translate(298.840452, 303.027631)"><path style="stroke:none" d="M 8.453125 -7.125 C 8.960938 -7.050781 9.425781 -6.847656 9.84375 -6.515625 C 10.257812 -6.179688 10.585938 -5.769531 10.828125 -5.28125 C 11.078125 -4.789062 11.203125 -4.269531 11.203125 -3.71875 C 11.203125 -3.007812 11.019531 -2.375 10.65625 -1.8125 C 10.300781 -1.25 9.78125 -0.804688 9.09375 -0.484375 C 8.414062 -0.160156 7.613281 0 6.6875 0 L 1.53125 0 L 1.53125 -13.84375 L 6.5 -13.84375 C 7.4375 -13.84375 8.234375 -13.6875 8.890625 -13.375 C 9.554688 -13.0625 10.054688 -12.640625 10.390625 -12.109375 C 10.722656 -11.578125 10.890625 -10.984375 10.890625 -10.328125 C 10.890625 -9.503906 10.664062 -8.820312 10.21875 -8.28125 C 9.769531 -7.75 9.179688 -7.363281 8.453125 -7.125 Z M 3.34375 -7.859375 L 6.375 -7.859375 C 7.21875 -7.859375 7.867188 -8.054688 8.328125 -8.453125 C 8.796875 -8.859375 9.03125 -9.410156 9.03125 -10.109375 C 9.03125 -10.804688 8.796875 -11.351562 8.328125 -11.75 C 7.867188 -12.15625 7.203125 -12.359375 6.328125 -12.359375 L 3.34375 -12.359375 Z M 6.53125 -1.484375 C 7.4375 -1.484375 8.140625 -1.695312 8.640625 -2.125 C 9.140625 -2.550781 9.390625 -3.140625 9.390625 -3.890625 C 9.390625 -4.660156 9.125 -5.265625 8.59375 -5.703125 C 8.070312 -6.148438 7.363281 -6.375 6.46875 -6.375 L 3.34375 -6.375 L 3.34375 -1.484375 Z M 6.53125 -1.484375 "/></g></g></g></svg>